<svg aria-hidden="true" style="width:0;height:0;position:absolute;overflow:hidden" xmlns="http://www.w3.org/2000/svg"><defs><symbol id="burger" viewBox="0 0 46 32"><path fill="none" stroke="#d41443" style="stroke:var(--color1,#d41443)" stroke-width="2.286" d="M0 2.286h45.714M0 16h45.714M0 29.714h45.714"/></symbol><symbol id="logo-milk" viewBox="0 0 127 32"><path fill="#fff" style="fill:var(--color2,#fff)" d="M31.36 16.32C31.36 24.98 24.483 32 16 32S.64 24.98.64 16.32 7.517.64 16 .64s15.36 7.02 15.36 15.68z"/><path fill="#d41443" style="fill:var(--color1,#d41443)" d="M11.849.562C4.443 2.805 0 8.635 0 16.004c0 6.023 3.091 11.277 8.179 13.904 2.64 1.346 3.027.384.58-1.474-1.739-1.41-2.061-2.05-2.061-4.421 0-1.666-.386-3.011-.966-3.524-1.159-.961-1.288-3.46-.129-4.357.451-.384.902-1.666.966-2.819.322-4.229 4.894-8.201 9.467-8.201s9.145 3.973 9.466 8.201c.064 1.153.515 2.435.966 2.819 1.159.897 1.03 3.396-.129 4.357-.58.513-.966 1.858-.966 3.524 0 2.371-.322 3.011-2.061 4.421-2.705 2.114-1.932 2.883 1.095 1.025 4.25-2.627 7.406-8.33 7.406-13.391C31.813 5.944 21.252-2.257 11.85.562z"/><path fill="#d41443" style="fill:var(--color1,#d41443)" d="M12.686 7.994c-1.159.513-2.125 1.153-2.125 1.538 0 .705 3.477 1.986 5.474 1.986s5.474-1.281 5.474-1.986c0-.769-3.993-2.499-5.603-2.499-.644.064-2.125.449-3.22.961zm33.165 3.332c-.966.256-1.159 1.089-1.159 5.703v5.382h4.572l-.193-5.574c-.193-5.831-.451-6.279-3.22-5.51zm7.535.32c-2.125 1.153-2.898 2.563-2.898 5.318 0 3.78 2.061 5.574 5.86 5.318 2.576-.192 2.833-.384 3.027-1.986s.064-1.73-1.932-1.602c-2.061.192-2.125.064-2.125-2.05s.129-2.243 1.996-2.05c1.546.128 2.125-.128 2.383-1.089.129-.641 0-1.538-.386-1.922-.902-.897-4.25-.897-5.925.064zm7.663.064c-.193.513-.258 3.011-.129 5.638l.193 4.741h4.186c3.864 0 4.186-.128 4.379-1.474.193-1.217-.064-1.41-2.06-1.41-1.288 0-2.319-.32-2.319-.641 0-.384.902-.641 1.932-.641 1.481 0 1.932-.256 1.932-1.281s-.451-1.281-1.932-1.281c-1.03 0-1.932-.32-1.932-.641 0-.384.837-.641 1.868-.641 1.804 0 3.027-1.41 2.254-2.627-.58-.961-7.985-.705-8.372.256zm12.944-.192c-2.125.833-2.962 2.307-3.027 4.998-.065 4.613 1.803 6.215 6.633 5.767 1.868-.128 2.189-.448 2.189-1.794 0-1.41-.257-1.602-2.061-1.41-1.546.128-2.125-.064-2.447-1.089-.58-1.986.644-3.588 2.705-3.588 1.224 0 1.868-.384 1.996-1.217.451-2.05-2.833-3.011-5.989-1.666zm7.921-.256c-.323.256-.515 2.883-.515 5.831v5.382l2.06-.192c1.61-.128 2.19-.577 2.512-1.794l.386-1.602.515 1.73c.387 1.474.837 1.794 2.512 1.794 2.769 0 3.091-.448 1.932-2.691-.708-1.41-.837-2.114-.322-2.627.837-.833.902-3.652.129-4.87-.644-1.025-8.371-1.858-9.208-.961zm5.28 3.46c0 .705-.257 1.281-.644 1.281-.322 0-.644-.577-.644-1.281s.322-1.281.644-1.281c.387 0 .644.577.644 1.281zm6.247-3.396c-.258.192-.451 2.819-.451 5.767v5.318h4.186c4.057 0 4.186-.064 4.186-1.602 0-1.346-.322-1.602-1.932-1.602-1.03 0-1.932-.32-1.932-.641 0-.384.708-.641 1.61-.641 1.159 0 1.61-.32 1.61-1.281s-.451-1.281-1.61-1.281c-.902 0-1.61-.32-1.61-.641 0-.384.902-.641 1.932-.641 1.61 0 1.932-.256 1.932-1.602 0-1.538-.193-1.602-3.735-1.602-2.061 0-3.992.192-4.186.448zm13.009-.064c-1.16.32-4.122 8.842-3.542 10.252.515 1.281 3.413 1.153 4.186-.192.579-1.089.644-1.089 1.803 0 1.482 1.281 4.701 1.474 4.701.256 0-.384-.644-2.947-1.482-5.574-1.288-4.229-1.674-4.806-3.027-4.934-.902 0-2.061.064-2.64.192zm1.803 5.831c-.193.641-.322.256-.322-.769 0-1.089.129-1.538.322-1.153.129.448.129 1.346 0 1.922zm7.47-5.767c-.58.192-.837 1.986-.837 5.703v5.382h1.868c1.61 0 1.932-.32 2.189-1.794.257-1.666.257-1.666.772-.32.258.833.902 1.474 1.352 1.474.515 0 1.224-.641 1.546-1.474.515-1.346.58-1.346.58.384.065 1.602.257 1.794 2.061 1.602l1.996-.192.065-5.318c.129-4.934.064-5.318-1.288-5.638-2.061-.513-3.799.705-4.379 3.076l-.451 2.114-.708-2.243c-.902-3.011-2.254-3.78-4.765-2.755zm-106.707.641c-.193.256-.386 1.089-.386 1.922 0 1.474.064 1.474 7.406 1.474s7.406 0 7.406-1.474c0-2.178-.58-2.435-2.64-1.41-2.318 1.217-7.213 1.217-9.531 0-1.03-.513-1.996-.705-2.254-.513zm-1.868 5.702c-1.03 1.089.708 1.538 5.731 1.538h5.409v2.243c0 1.217.322 2.243.644 2.243.386 0 .644-.961.644-2.178 0-2.114.129-2.243 2.576-2.435 1.417-.128 2.576-.513 2.576-.833 0-.705-16.872-1.281-17.581-.577z"/><path fill="#d41443" style="fill:var(--color1,#d41443)" d="M8.629 23.308c0 3.524 1.224 4.229 7.406 4.229s7.406-.705 7.406-4.229c0-1.538-.322-2.178-.966-2.178-.58 0-.966.577-.966 1.538 0 3.588-4.894 3.908-5.603.384-.322-1.858-.515-1.922-3.8-1.922H8.629v2.178zm3.993 7.24c.386 2.05 6.955 1.858 6.955-.128 0-.705-.837-.961-3.606-.961-3.027 0-3.542.192-3.349 1.089z"/></symbol><symbol id="btn-icon" viewBox="0 0 19 32"><path fill="none" stroke="#d41443" style="stroke:var(--color1,#d41443)" stroke-linejoin="round" stroke-linecap="round" stroke-width="6.4" d="M3.2 3.2 16 16 3.2 28.8"/></symbol><symbol id="github" viewBox="0 0 32 32"><path d="M16 6.588c-5.17 0-9.412 4.242-9.412 9.412 0 4.411 3.096 8.418 7.206 9.412v-3.114c-.407.089-.782.092-1.197-.03-.556-.165-1.008-.535-1.343-1.1-.214-.361-.593-.752-.988-.723l-.097-1.1c.855-.072 1.594.522 2.033 1.26.195.327.42.52.708.605.278.082.577.042.926-.08.087-.698.407-.96.648-1.327-2.451-.366-3.428-1.667-3.816-2.693-.514-1.363-.238-3.066.67-4.142.018-.021.05-.076.038-.114-.417-1.259.09-2.3.11-2.41.48.142.558-.143 2.088.786l.264.159c.11.066.076.028.187.02A7.986 7.986 0 0 1 16 11.13a8.021 8.021 0 0 1 2.002.285l.086.008c-.008 0 .023-.005.075-.036 1.91-1.157 1.842-.779 2.354-.946.019.111.52 1.17.108 2.412-.056.17 1.656 1.739.707 4.255-.388 1.027-1.365 2.328-3.816 2.693.314.48.692.735.69 1.723v3.887c4.11-.994 7.206-5 7.206-9.412 0-5.17-4.242-9.412-9.412-9.412Z" fill="#fff"/></symbol><symbol id="facebook" viewBox="0 0 32 32"><path d="M20.916 15.981h-2.61V25.6h-3.955V15.98h-1.88v-3.38h1.88v-2.187c0-1.565.74-4.014 3.99-4.014l2.93.012v3.281h-2.126c-.348 0-.839.176-.839.922v1.99h2.956l-.346 3.376Z" fill="#fff"/></symbol><symbol id="telegram" viewBox="0 0 32 32"><path d="m13.534 18.842-.318 4.17c.455 0 .651-.183.887-.402l2.131-1.9 4.414 3.017c.81.422 1.38.2 1.599-.695l2.898-12.672c.257-1.118-.432-1.555-1.221-1.28L6.89 15.165c-1.162.422-1.144 1.026-.197 1.3l4.354 1.264 10.115-5.906c.476-.295.909-.132.553.162l-8.182 6.857Z" fill="#fff"/></symbol><symbol id="arrow" viewBox="0 0 6 10"><path d="m1 1 3.61 4L1 9" stroke="#fff" stroke-width="2" stroke-linecap="round" stroke-linejoin="round"/></symbol><symbol id="arrow-red" viewBox="0 0 6 10"><path d="m1.616 1 4.428 4-4.428 4" stroke="#D41443" stroke-width="2" stroke-linecap="round" stroke-linejoin="round"/></symbol><symbol id="arrow-right" viewBox="0 0 32 32"><path d="m19.414 27.414 10-10a2 2 0 0 0 0-2.828l-10-10a2 2 0 1 0-2.828 2.828L23.172 14H4a2 2 0 1 0 0 4h19.172l-6.586 6.586c-.39.39-.586.902-.586 1.414s.195 1.024.586 1.414a2 2 0 0 0 2.828 0z"/></symbol><symbol id="close-icon" viewBox="0 0 32 32"><path d="m26.667 7.303-1.97-1.97-7.808 7.808-7.808-7.808-1.97 1.97 7.808 7.808-7.808 7.808 1.97 1.97 7.808-7.808 7.808 7.808 1.97-1.97-7.808-7.808 7.808-7.808z"/></symbol><symbol id="icon-person-black" viewBox="0 0 18 18"><path d="M9 9a3 3 0 1 0 0-6 3 3 0 1 0 0 6Zm0 1.5c-2.003 0-6 1.005-6 3v.75c0 .412.337.75.75.75h10.5c.412 0 .75-.338.75-.75v-.75c0-1.995-3.998-3-6-3Z"/></symbol><symbol id="icon-phone-black" viewBox="0 0 18 18"><path d="m13.996 11.123-1.838-.21a1.44 1.44 0 0 0-1.187.412l-1.332 1.332a10.888 10.888 0 0 1-4.769-4.77L6.21 6.55a1.44 1.44 0 0 0 .412-1.187l-.21-1.824a1.448 1.448 0 0 0-1.44-1.28H3.72c-.818 0-1.498.68-1.448 1.497.384 6.18 5.327 11.116 11.5 11.5.817.05 1.498-.63 1.498-1.448v-1.252a1.434 1.434 0 0 0-1.274-1.432Z"/></symbol><symbol id="icon-email-black" viewBox="0 0 18 18"><path d="M15 3H3c-.825 0-1.492.675-1.492 1.5l-.008 9c0 .825.675 1.5 1.5 1.5h12c.825 0 1.5-.675 1.5-1.5v-9c0-.825-.675-1.5-1.5-1.5Zm-.3 3.188L9.398 9.502a.759.759 0 0 1-.796 0L3.3 6.188a.637.637 0 1 1 .675-1.08L9 8.25l5.025-3.143a.637.637 0 1 1 .675 1.08Z"/></symbol><symbol id="icon-check" viewBox="0 0 16 15"><rect width="16" height="15" rx="2"/><path d="m3.957 7.752-.069-.066-.069.065-.888.842-.076.072.076.073 3.496 3.334.069.066.069-.066 7.504-7.158.076-.073-.076-.072-.882-.841-.069-.066-.069.066-6.553 6.246-2.539-2.422Z" fill="#fff" stroke="#fff" stroke-width=".2"/></symbol></defs></svg>