<svg width="46" height="52" fill="none" xmlns="http://www.w3.org/2000/svg"><mask id="a" maskUnits="userSpaceOnUse" x="0" y="0" width="46" height="52" fill="#000"><path fill="#fff" d="M0 0h46v52H0z"/><path d="M10.5745 1.1082c-4.5656.9565-8.1103 4.7078-9.2661 9.8095-.4238 1.7819-.4046 5.2143.0193 7.1649.944 4.3327 3.0437 8.1778 6.3572 11.5164 2.9667 3.001 5.5674 4.8204 9.69 6.7148l2.1576 1.0128V51h2.3117V38.0769l.5779.1688c.3275.0938.8284.0938 1.1559 0l.5779-.1688V51h2.3117V37.3079l2.0613-.9378c3.9877-1.8382 6.8774-3.8263 9.69-6.6773 4.4886-4.5578 6.781-9.7345 6.781-15.3614.0193-6.1709-3.2171-11.1788-8.3029-12.8856-1.0788-.3752-1.6375-.4314-3.6795-.4127-2.1383.0188-2.62.0938-4.2382.6002-1.9071.619-3.7758 1.5943-5.0087 2.6072l-.7128.6002-1.0402-.769c-2.6778-1.9695-5.4133-2.926-8.6305-3.0573-1.1173-.0375-2.3887 0-2.8126.0938Zm4.3923 2.3257c.8091.15 1.9072.469 2.4851.694 1.2329.5065 3.2942 1.8006 4.1033 2.5696 1.2522 1.1817 1.599 1.163 3.0245-.1125 2.2347-2.0257 5.8371-3.4137 8.8038-3.4137 4.0263 0 7.7058 3.1511 8.8809 7.5964.2119.7877.4045 2.0632.4238 2.8322.0771 1.688.0193 1.7443-2.6007 2.7384-2.1191.8065-3.8914 1.2004-6.9352 1.538-1.9457.2251-2.3502.3376-2.9474.769-1.2329.9191-1.4256 1.5943-1.4256 5.4206 0 2.8697-.0385 3.4137-.3275 3.7138-.4045.4501-1.1173.4314-1.5989-.0376-.366-.3563-.3853-.6189-.3853-4.4077 0-4.2014-.1156-4.9142-.9054-5.7582-.1734-.1875-1.5412-.919-3.0245-1.6505-1.676-.7878-3.352-1.7631-4.3537-2.5321-4.8354-3.62-6.9737-4.6516-10.9422-5.2706-1.1366-.1875-2.0998-.3563-2.1383-.3751-.1734-.1313.8669-1.463 1.8108-2.2883C9.149 3.4714 11.692 2.8337 14.9668 3.434Zm-6.3765 7.24c1.965.4877 4.1804 1.5943 6.2031 3.0948.8477.6189 1.9265 1.4067 2.4081 1.7631 1.2907.9565 3.429 2.157 5.0472 2.8322.7899.3376 1.5412.7315 1.676.9003.1734.2063.2312 1.388.2312 4.3327 0 3.5449.0578 4.1451.366 4.8016.6357 1.3505 1.6568 1.9694 3.2172 1.9694 1.0017 0 1.6952-.3001 2.4273-1.0691.8283-.844.9247-1.3692.9247-4.9516 0-4.0702-.0386-3.9951 2.2346-4.1827 2.3117-.2063 5.1821-.8253 7.0893-1.5193.9632-.3563 1.7916-.6002 1.8301-.5439.2119.2063-1.2329 3.8826-2.0805 5.308-1.3485 2.3071-2.4081 3.62-4.4501 5.5332-2.9667 2.7759-7.0507 5.1579-11.2118 6.5834L23 36.0512l-1.4833-.5252c-4.4501-1.5005-8.38-3.8825-11.5394-6.9398-4.007-3.8451-6.1067-7.9152-6.6269-12.7356-.1926-1.8006.0963-4.8954.5394-5.6269.1541-.2625 2.909.0188 4.7005.4502Z"/></mask><path d="M10.5745 1.1082c-4.5656.9565-8.1103 4.7078-9.2661 9.8095-.4238 1.7819-.4046 5.2143.0193 7.1649.944 4.3327 3.0437 8.1778 6.3572 11.5164 2.9667 3.001 5.5674 4.8204 9.69 6.7148l2.1576 1.0128V51h2.3117V38.0769l.5779.1688c.3275.0938.8284.0938 1.1559 0l.5779-.1688V51h2.3117V37.3079l2.0613-.9378c3.9877-1.8382 6.8774-3.8263 9.69-6.6773 4.4886-4.5578 6.781-9.7345 6.781-15.3614.0193-6.1709-3.2171-11.1788-8.3029-12.8856-1.0788-.3752-1.6375-.4314-3.6795-.4127-2.1383.0188-2.62.0938-4.2382.6002-1.9071.619-3.7758 1.5943-5.0087 2.6072l-.7128.6002-1.0402-.769c-2.6778-1.9695-5.4133-2.926-8.6305-3.0573-1.1173-.0375-2.3887 0-2.8126.0938Zm4.3923 2.3257c.8091.15 1.9072.469 2.4851.694 1.2329.5065 3.2942 1.8006 4.1033 2.5696 1.2522 1.1817 1.599 1.163 3.0245-.1125 2.2347-2.0257 5.8371-3.4137 8.8038-3.4137 4.0263 0 7.7058 3.1511 8.8809 7.5964.2119.7877.4045 2.0632.4238 2.8322.0771 1.688.0193 1.7443-2.6007 2.7384-2.1191.8065-3.8914 1.2004-6.9352 1.538-1.9457.2251-2.3502.3376-2.9474.769-1.2329.9191-1.4256 1.5943-1.4256 5.4206 0 2.8697-.0385 3.4137-.3275 3.7138-.4045.4501-1.1173.4314-1.5989-.0376-.366-.3563-.3853-.6189-.3853-4.4077 0-4.2014-.1156-4.9142-.9054-5.7582-.1734-.1875-1.5412-.919-3.0245-1.6505-1.676-.7878-3.352-1.7631-4.3537-2.5321-4.8354-3.62-6.9737-4.6516-10.9422-5.2706-1.1366-.1875-2.0998-.3563-2.1383-.3751-.1734-.1313.8669-1.463 1.8108-2.2883C9.149 3.4714 11.692 2.8337 14.9668 3.434Zm-6.3765 7.24c1.965.4877 4.1804 1.5943 6.2031 3.0948.8477.6189 1.9265 1.4067 2.4081 1.7631 1.2907.9565 3.429 2.157 5.0472 2.8322.7899.3376 1.5412.7315 1.676.9003.1734.2063.2312 1.388.2312 4.3327 0 3.5449.0578 4.1451.366 4.8016.6357 1.3505 1.6568 1.9694 3.2172 1.9694 1.0017 0 1.6952-.3001 2.4273-1.0691.8283-.844.9247-1.3692.9247-4.9516 0-4.0702-.0386-3.9951 2.2346-4.1827 2.3117-.2063 5.1821-.8253 7.0893-1.5193.9632-.3563 1.7916-.6002 1.8301-.5439.2119.2063-1.2329 3.8826-2.0805 5.308-1.3485 2.3071-2.4081 3.62-4.4501 5.5332-2.9667 2.7759-7.0507 5.1579-11.2118 6.5834L23 36.0512l-1.4833-.5252c-4.4501-1.5005-8.38-3.8825-11.5394-6.9398-4.007-3.8451-6.1067-7.9152-6.6269-12.7356-.1926-1.8006.0963-4.8954.5394-5.6269.1541-.2625 2.909.0188 4.7005.4502Z" fill="#FFA5BA"/><path d="M10.5745 1.1082c-4.5656.9565-8.1103 4.7078-9.2661 9.8095-.4238 1.7819-.4046 5.2143.0193 7.1649.944 4.3327 3.0437 8.1778 6.3572 11.5164 2.9667 3.001 5.5674 4.8204 9.69 6.7148l2.1576 1.0128V51h2.3117V38.0769l.5779.1688c.3275.0938.8284.0938 1.1559 0l.5779-.1688V51h2.3117V37.3079l2.0613-.9378c3.9877-1.8382 6.8774-3.8263 9.69-6.6773 4.4886-4.5578 6.781-9.7345 6.781-15.3614.0193-6.1709-3.2171-11.1788-8.3029-12.8856-1.0788-.3752-1.6375-.4314-3.6795-.4127-2.1383.0188-2.62.0938-4.2382.6002-1.9071.619-3.7758 1.5943-5.0087 2.6072l-.7128.6002-1.0402-.769c-2.6778-1.9695-5.4133-2.926-8.6305-3.0573-1.1173-.0375-2.3887 0-2.8126.0938Zm4.3923 2.3257c.8091.15 1.9072.469 2.4851.694 1.2329.5065 3.2942 1.8006 4.1033 2.5696 1.2522 1.1817 1.599 1.163 3.0245-.1125 2.2347-2.0257 5.8371-3.4137 8.8038-3.4137 4.0263 0 7.7058 3.1511 8.8809 7.5964.2119.7877.4045 2.0632.4238 2.8322.0771 1.688.0193 1.7443-2.6007 2.7384-2.1191.8065-3.8914 1.2004-6.9352 1.538-1.9457.2251-2.3502.3376-2.9474.769-1.2329.9191-1.4256 1.5943-1.4256 5.4206 0 2.8697-.0385 3.4137-.3275 3.7138-.4045.4501-1.1173.4314-1.5989-.0376-.366-.3563-.3853-.6189-.3853-4.4077 0-4.2014-.1156-4.9142-.9054-5.7582-.1734-.1875-1.5412-.919-3.0245-1.6505-1.676-.7878-3.352-1.7631-4.3537-2.5321-4.8354-3.62-6.9737-4.6516-10.9422-5.2706-1.1366-.1875-2.0998-.3563-2.1383-.3751-.1734-.1313.8669-1.463 1.8108-2.2883C9.149 3.4714 11.692 2.8337 14.9668 3.434Zm-6.3765 7.24c1.965.4877 4.1804 1.5943 6.2031 3.0948.8477.6189 1.9265 1.4067 2.4081 1.7631 1.2907.9565 3.429 2.157 5.0472 2.8322.7899.3376 1.5412.7315 1.676.9003.1734.2063.2312 1.388.2312 4.3327 0 3.5449.0578 4.1451.366 4.8016.6357 1.3505 1.6568 1.9694 3.2172 1.9694 1.0017 0 1.6952-.3001 2.4273-1.0691.8283-.844.9247-1.3692.9247-4.9516 0-4.0702-.0386-3.9951 2.2346-4.1827 2.3117-.2063 5.1821-.8253 7.0893-1.5193.9632-.3563 1.7916-.6002 1.8301-.5439.2119.2063-1.2329 3.8826-2.0805 5.308-1.3485 2.3071-2.4081 3.62-4.4501 5.5332-2.9667 2.7759-7.0507 5.1579-11.2118 6.5834L23 36.0512l-1.4833-.5252c-4.4501-1.5005-8.38-3.8825-11.5394-6.9398-4.007-3.8451-6.1067-7.9152-6.6269-12.7356-.1926-1.8006.0963-4.8954.5394-5.6269.1541-.2625 2.909.0188 4.7005.4502Z" stroke="#FFA5BA" mask="url(#a)"/></svg>