<svg width="12" height="12" fill="none" xmlns="http://www.w3.org/2000/svg"><path d="M11.8497 6.2873c.2175-.2232.1965-.5652-.0469-.7638l-5.363-4.3773c-.2434-.1985-.6337-.1944-.872.0094L.1866 5.757c-.2383.2038-.25.5454-.0259.7626l.135.1311c.2238.2173.5856.2432.8075.0577l.4022-.336v4.9184c0 .3017.2621.546.5854.546h2.0976c.3232 0 .5853-.2443.5853-.546V7.8498h2.6756v3.4409c-.0047.3015.2266.5458.5499.5458h2.2229c.3232 0 .5854-.2443.5854-.546V6.4416s.1111.0908.2481.2031c.1368.1122.4241.0223.6416-.2011l.1525-.1563Z" fill="#D31342"/></svg>